<?xml version="1.0" encoding="utf-8"?>
<!-- Generator: Adobe Illustrator 16.0.0, SVG Export Plug-In . SVG Version: 6.00 Build 0)  -->
<!DOCTYPE svg PUBLIC "-//W3C//DTD SVG 1.1//EN" "http://www.w3.org/Graphics/SVG/1.1/DTD/svg11.dtd">
<svg version="1.1" id="Layer_5" xmlns="http://www.w3.org/2000/svg" xmlns:xlink="http://www.w3.org/1999/xlink" x="0px" y="0px"
	 width="100px" height="100px" viewBox="0 0 100 100" enable-background="new 0 0 100 100" xml:space="preserve">
<path d="M56.785,71.31c4.594,1.574,8.65,2.576,14.478,4.366C69.024,103.967,42.272,92.732,56.785,71.31z M80.671,45.321
	c-0.302-8.495-1.798-19.638-13.716-17.892c-5.587,1.458-9.715,7.594-11.656,18.18c-1.067,5.82-0.447,13.99,0.811,18.888
	c1.149,3.451,0.758,3.239,1.992,3.894c4.778,1.077,9.507,2.268,14.324,3.482C77.318,68.418,81.337,50.074,80.671,45.321z
	 M43.891,44.669c1.257-4.898,1.877-13.068,0.811-18.888c-1.94-10.586-6.068-16.723-11.656-18.18
	c-11.918-1.746-13.414,9.397-13.716,17.892c-0.666,4.753,3.353,23.098,8.246,26.552c4.816-1.214,9.545-2.405,14.324-3.482
	C43.133,47.908,42.742,48.12,43.891,44.669z M28.737,55.849c2.238,28.291,28.99,17.056,14.478-4.366
	C38.621,53.056,34.565,54.058,28.737,55.849z"/>
</svg>
